<svg xmlns="http://www.w3.org/2000/svg" width="20" height="20" viewBox="0 0 20 20">
  <path fill="rgb(0,0,0)" fill-rule="evenodd" d="M15.83333361 1.66666663H4.16666663c-1.38071192 0-2.5 1.11928808-2.5 2.5V15.8333336c0 1.3807106 1.11928808 2.49999905 2.5 2.49999905H15.8333336c1.3807106 0 2.49999905-1.11928845 2.49999905-2.49999905V4.16666663c0-1.38071192-1.11928845-2.5-2.49999905-2.5zm-6.8541665 10.17916584c.1305561-.2361126.1958332-.51527596.1958332-.83749962 0-.16666794-.02777767-.3236103-.08333302-.47083283-.0555563-.14722347-.1333332-.28055572-.23333358-.40000057-.10000038-.11944485-.21944428-.22222233-.3583336-.3083334-.1388893-.08611106-.29166602-.14861106-.458333-.18749952v-.02499962c.28888988-.07777786.5263872-.22916603.71249961-.4541664.1861124-.22500134.27916622-.5013876.27916622-.82916738 0-.28333473-.05972099-.52916526-.17916584-.7374997-.11944484-.20833446-.27638816-.38194371-.47083377-.5208335-.19444466-.13888931-.41527653-.24166632-.66249943-.3083334-.24722386-.06666708-.5013876-.0999999-.76250029-.0999999-.24444532 0-.48333216.03194427-.7166667.0958333-.23333454.06388903-.4486103.15833282-.64583301.2833333-.19722367.12500048-.36805535.28055477-.51250029.4666667-.14444494.18611193-.25277757.4041667-.3249998.65416622l1.2999997.3000002c.04444504-.20000077.14027691-.3597212.28750039-.47916652.14722252-.11944484.3208332-.17916631.52083301-.17916631.19444561 0 .36666584.05555486.51666642.1666665.15000104.11111117.22500038.2722211.22500038.48333311 0 .14444542-.02916622.26111126-.0875001.35000039-.05833387.08888912-.13611078.15972232-.2333331.21249961-.0972233.05277825-.206944.08888913-.3291669.1083336-.1222229.01944446-.24999952.02916621-.3833332.02916621h-.4083333v1.0250001h.375c.14444494 0 .28888797.0124998.4333334.03749943.14444493.02500057.2736101.0666666.3874998.125.1138897.05833435.20555496.1374998.27499962.23750019.06944513.10000133.10416698.22499943.10416698.375 0 .13889026-.02638864.25555515-.0791664.35000038-.05277825.09444523-.11944438.17083263-.2000003.22916698-.08055591.05833245-.17222166.10138798-.2750001.12916565-.10277843.02777863-.20416593.04166699-.30416678.04166699-.26666737 0-.48610974-.0736103-.65833283-.22083378-.17222309-.14722252-.28611088-.3180542-.34166717-.51249886l-1.29999972.34166623c.07777834.27777957.1944437.5152769.3499999.71250057.15555668.1972227.33749915.35833168.5458336.48333263.20833396.12500096.43888759.21805477.6916666.27916622.252779.06111145.51249885.09166718.77916622.09166718.27222395 0 .54027653-.03749943.8041668-.1125002.26389026-.0749998.50138759-.18888759.71250056-.34166621.21111203-.15277863.38194275-.34722138.51249981-.58333397zm6.60416555-2.08749962c0 .51666927-.09583187.96249771-.28749943 1.33749962-.19166756.3750019-.44444275.68333244-.7583332.92500019-.31389046.24166775-.66805459.41944408-1.0625.53333378-.39444733.11388969-.79444314.17083358-1.20000077.17083358h-2.1999998v-5.9000001h2.1333332c.41666889 0 .82777595.0486107 1.23333359.1458335.40555763.09722233.76666545.25833225 1.08333301.48333311.31666851.22500134.57222176.52638722.76666641.90416718.19444657.377779.29166699.84444141.29166699 1.39999914zm-1.64583302-.82916594c.10833359.21944619.16249943.4958315.16249943.82916594 0 .32777977-.05416584.60277748-.16249943.82500076-.10833454.22222328-.2527771.39999867-.43333435.53333283-.1805563.13333416-.3888874.22916603-.62499904.28750038-.2361126.0583334-.48194314.08749962-.7375002.08749962h-.67500019V8.0416671h.70833302c.2444458 0 .48194313.02777768.71250057.08333302.23055649.0555563.43610954.14861107.61666584.27916717.18055725.13055611.32499981.3055544.43333435.52499962z"/>
</svg>
