<?xml version="1.0" encoding="UTF-8"?>
<svg width="24px" height="24px" viewBox="0 0 24 24" version="1.1" xmlns="http://www.w3.org/2000/svg" xmlns:xlink="http://www.w3.org/1999/xlink">
    <!-- Generator: Sketch 55.2 (78181) - https://sketchapp.com -->
    <title>Bar Pub 24x24</title>
    <desc>Created with Sketch.</desc>
    <g id="Bar-Pub-24x24" stroke="none" stroke-width="1" fill="none" fill-rule="evenodd">
        <path d="M17.6503277,9.23748553 L13.0717962,14.9606498 C13.0722705,14.9733009 13.0725098,14.9860122 13.0725098,14.9987793 L13.0725098,20.9987793 L13.072509,21 L14.0725098,21 C14.6247945,21 15.0725098,21.4477153 15.0725098,22 C15.0725098,22.5522847 14.6247945,23 14.0725098,23 L10.0725098,23 C9.52022502,23 9.07250977,22.5522847 9.07250977,22 C9.07250977,21.4477153 9.52022502,21 10.0725098,21 L11.0725104,21 L11.0725098,20.9987793 L11.0725098,15.1409863 L4.64989643,7.11271964 C4.47739166,6.89708867 4.51235234,6.58244249 4.72798331,6.40993771 C4.81663984,6.33901249 4.92679509,6.30037212 5.04033084,6.30037212 L16.0111082,6.30037212 C16.0037465,6.20121068 16,6.10104286 16,6 C16,3.790861 17.790861,2 20,2 C22.209139,2 24,3.790861 24,6 C24,8.209139 22.209139,10 20,10 C19.1219763,10 18.3100268,9.71710306 17.6503277,9.23748553 L17.6503277,9.23748553 Z M18.9025147,7.67225182 C19.2175867,7.87945034 19.5947154,8 20,8 C21.1045695,8 22,7.1045695 22,6 C22,4.8954305 21.1045695,4 20,4 C18.8954305,4 18,4.8954305 18,6 C18,6.10209126 18.0076493,6.20239592 18.0224061,6.30037212 L18.959706,6.30037212 C19.2358484,6.30037212 19.459706,6.52422974 19.459706,6.80037212 C19.459706,6.91390787 19.4210656,7.02406312 19.3501404,7.11271964 L18.9025147,7.67225182 L18.9025147,7.67225182 Z M15.8387687,8.30037212 L8.16126811,8.30037212 L12.0000184,13.09881 L15.8387687,8.30037212 Z" id="Shape" fill="#000000" fill-rule="nonzero"></path>
    </g>
</svg>