<?xml version="1.0" standalone="no"?><!DOCTYPE svg PUBLIC "-//W3C//DTD SVG 1.1//EN" "http://www.w3.org/Graphics/SVG/1.1/DTD/svg11.dtd"><svg t="1594021052911" class="icon" viewBox="0 0 1024 1024" version="1.1" xmlns="http://www.w3.org/2000/svg" p-id="12269" xmlns:xlink="http://www.w3.org/1999/xlink" width="200" height="200"><defs><style type="text/css"></style></defs><path d="M950.857247 621.713398v109.714129c0 65.133621-28.562245 122.843253-73.142752 163.43748V1005.712849c0 10.276557-8.009131 18.285688-18.285688 18.285688h-36.571377a18.06626 18.06626 0 0 1-18.285688-18.285688v-67.437618A220.708256 220.708256 0 0 1 731.428989 950.855784H292.572473a220.708256 220.708256 0 0 1-73.142752-12.580553v62.866196c0 12.580553-8.009131 22.85711-18.285688 22.85711h-36.571377c-10.276557 0-18.285688-10.276557-18.285688-22.85711v-106.27642C101.70646 854.307351 73.144216 796.561148 73.144216 731.427527v-109.714129h877.713031z m-548.570645-237.713947c0 10.276557-8.009131 18.285688-18.285688 18.285689s-18.285688-8.009131-18.285688-18.285689 8.009131-18.285688 18.285688-18.285688 18.285688 8.009131 18.285688 18.285688z m36.571377-36.571376c0 10.276557-8.009131 18.285688-18.285688 18.285688s-18.285688-8.009131-18.285689-18.285688 8.009131-18.285688 18.285689-18.285688 18.285688 8.009131 18.285688 18.285688z m-36.571377-36.571376c0 10.276557-8.009131 18.285688-18.285688 18.285688s-18.285688-8.009131-18.285688-18.285688 8.009131-18.285688 18.285688-18.285688 18.285688 8.009131 18.285688 18.285688z m73.142753 0c0 10.276557-8.009131 18.285688-18.285688 18.285688s-18.285688-8.009131-18.285688-18.285688 8.009131-18.285688 18.285688-18.285688 18.285688 8.009131 18.285688 18.285688z m-36.571376-36.571377c0 10.276557-8.009131 18.285688-18.285688 18.285689s-18.285688-8.009131-18.285689-18.285689 8.009131-18.285688 18.285689-18.285688 18.285688 8.009131 18.285688 18.285688z m-36.571377-36.571376c0 10.276557-8.009131 18.285688-18.285688 18.285688s-18.285688-8.009131-18.285688-18.285688 8.009131-18.285688 18.285688-18.285688 18.285688 8.009131 18.285688 18.285688z m621.713398 292.571011v36.571376c0 10.276557-8.009131 18.285688-18.285688 18.285688H18.287151a18.06626 18.06626 0 0 1-18.285688-18.285688v-36.571376c0-10.276557 8.009131-18.285688 18.285688-18.285688H73.144216V146.285505c0-80.566742 65.718763-146.285505 146.285505-146.285505 41.142798 0 78.299317 17.151975 105.142707 44.580508a110.994127 110.994127 0 0 1 109.128987 15.433121l12.580553-12.580554a8.959987 8.959987 0 0 1 12.580554 0l23.990822 23.990823a8.959987 8.959987 0 0 1 0 12.580553L303.434172 263.423624a8.959987 8.959987 0 0 1-12.580553 0l-23.990823-23.990823a8.959987 8.959987 0 0 1 0-12.580554l12.580553-12.580553a110.299271 110.299271 0 0 1-9.727986-121.16097A72.26504 72.26504 0 0 0 219.429721 73.106181c-40.557656 0-73.142753 32.585096-73.142753 73.142753v365.713763h859.427344c10.276557 0 18.285688 8.009131 18.285688 18.285688z m-511.999269-255.999635c0 10.276557-8.009131 18.285688-18.285688 18.285689s-18.285688-8.009131-18.285688-18.285689 8.009131-18.285688 18.285688-18.285688 18.285688 8.009131 18.285688 18.285688z m-36.571376-36.571376c0 10.276557-8.009131 18.285688-18.285688 18.285688s-18.285688-8.009131-18.285688-18.285688 8.009131-18.285688 18.285688-18.285688 18.285688 8.009131 18.285688 18.285688z m-36.571376-36.571376c0 10.276557-8.009131 18.285688-18.285688 18.285688s-18.285688-8.009131-18.285689-18.285688 8.009131-18.285688 18.285689-18.285688 18.285688 8.009131 18.285688 18.285688z m109.714129 36.571376c0 10.276557-8.009131 18.285688-18.285688 18.285688s-18.285688-8.009131-18.285689-18.285688 8.009131-18.285688 18.285689-18.285688 18.285688 8.009131 18.285688 18.285688z m-36.571377-36.571376c0 10.276557-8.009131 18.285688-18.285688 18.285688s-18.285688-8.009131-18.285688-18.285688 8.009131-18.285688 18.285688-18.285688 18.285688 8.009131 18.285688 18.285688z m-36.571376-36.571377c0 10.276557-8.009131 18.285688-18.285688 18.285689s-18.285688-8.009131-18.285688-18.285689 8.009131-18.285688 18.285688-18.285688 18.285688 8.009131 18.285688 18.285688z m109.714129 36.571377c0 10.276557-8.009131 18.285688-18.285688 18.285688s-18.285688-8.009131-18.285688-18.285688 8.009131-18.285688 18.285688-18.285688 18.285688 8.009131 18.285688 18.285688z m-36.571376-36.571377c0 10.276557-8.009131 18.285688-18.285688 18.285689s-18.285688-8.009131-18.285689-18.285689 8.009131-18.285688 18.285689-18.285688 18.285688 8.009131 18.285688 18.285688z m73.142752 0c0 10.276557-8.009131 18.285688-18.285688 18.285689s-18.285688-8.009131-18.285688-18.285689 8.009131-18.285688 18.285688-18.285688 18.285688 8.009131 18.285688 18.285688z" fill="" p-id="12270"></path></svg>