<?xml version="1.0" encoding="UTF-8"?>
<svg width="24px" height="24px" viewBox="0 0 24 24" version="1.1" xmlns="http://www.w3.org/2000/svg" xmlns:xlink="http://www.w3.org/1999/xlink">
    <!-- Generator: Sketch 55.2 (78181) - https://sketchapp.com -->
    <title>Cafe 24x24</title>
    <desc>Created with Sketch.</desc>
    <g id="Cafe-24x24" stroke="none" stroke-width="1" fill="none" fill-rule="evenodd">
        <path d="M16.9844047,9.99999744 L20,9.99999744 L20,10.9999974 C20,11.1065673 19.9992705,11.2123267 19.9978122,11.3172761 C21.8257329,10.993788 23,12.0037117 23,14.05 C23,16.2345875 21.2746394,17.614876 18.1961161,18.2305807 C18.1747963,18.2348446 18.1534994,18.2383964 18.1322499,18.2412525 C16.7937051,20.0578011 14.7424,20.9999974 12,20.9999974 C6.71825863,20.9999974 4,17.505096 4,10.9999974 L4,9.99999744 L7.95819132,9.99999744 L7.95976536,9.99410744 C8.0591853,9.61852099 7.99398619,9.12590548 7.64562385,8.46788772 C6.75193132,6.77980183 6.75193132,5.3032406 7.84278823,4.27298685 C8.24430651,3.89377514 8.87721321,3.91185819 9.25642492,4.31337647 C9.63563662,4.71489474 9.61755357,5.34780145 9.2160353,5.72701315 C8.8951275,6.03009274 8.8951275,6.5535315 9.41319968,7.53211228 C9.8828438,8.41921784 10.058951,9.25049203 9.98440474,9.99999744 L14.9581913,9.99999744 L14.9597654,9.99410744 C15.0591853,9.61852099 14.9939862,9.12590548 14.6456238,8.46788772 C13.7519313,6.77980183 13.7519313,5.3032406 14.8427882,4.27298685 C15.2443065,3.89377514 15.8772132,3.91185819 16.2564249,4.31337647 C16.6356366,4.71489474 16.6175536,5.34780145 16.2160353,5.72701315 C15.8951275,6.03009274 15.8951275,6.5535315 16.4131997,7.53211228 C16.8828438,8.41921784 17.058951,9.25049203 16.9844047,9.99999744 L16.9844047,9.99999744 Z M15.5318577,12 L15.5273226,12 L8.53185772,12 L8.5273226,12 L6.02309163,12 C6.25301847,16.7996686 8.20285171,19 12,19 C15.7971483,19 17.7469815,16.7996686 17.9769084,12 L15.5318577,12 L15.5318577,12 Z M19.3318173,15.8460209 C20.4929835,15.3991331 21,14.7952262 21,14.05 C21,13.151712 20.8857139,13.0755213 19.9162278,13.3986833 C19.89702,13.4050859 19.8777553,13.4108732 19.858455,13.4160559 C19.7476308,14.3006158 19.5718924,15.1112071 19.3318173,15.8460209 L19.3318173,15.8460209 Z M7,21 L17,21 C17.5522847,21 18,21.4477153 18,22 C18,22.5522847 17.5522847,23 17,23 L7,23 C6.44771525,23 6,22.5522847 6,22 C6,21.4477153 6.44771525,21 7,21 Z M10.8427882,1.27298685 C11.2443065,0.893775141 11.8772132,0.91185819 12.2564249,1.31337647 C12.6356366,1.71489474 12.6175536,2.34780145 12.2160353,2.72701315 C11.8951275,3.03009274 11.8951275,3.5535315 12.4131997,4.53211228 C12.9913079,5.62409452 13.1246382,6.63147901 12.8931758,7.50589256 C12.7413501,8.07945656 12.4741277,8.48325921 12.2160353,8.72701315 C11.814517,9.10622486 11.1816103,9.08814181 10.8023986,8.68662353 C10.4231869,8.28510526 10.44127,7.65219855 10.8427882,7.27298685 C10.8494017,7.26674079 10.9130617,7.17054344 10.9597654,6.99410744 C11.0591853,6.61852099 10.9939862,6.12590548 10.6456238,5.46788772 C9.75193132,3.77980183 9.75193132,2.3032406 10.8427882,1.27298685 Z" id="Shape" fill="#000000"></path>
    </g>
</svg>