<?xml version="1.0" encoding="UTF-8"?>
<svg width="24px" height="24px" viewBox="0 0 24 24" version="1.1" xmlns="http://www.w3.org/2000/svg" xmlns:xlink="http://www.w3.org/1999/xlink">
    <!-- Generator: Sketch 55.2 (78181) - https://sketchapp.com -->
    <title>Clik Logo R 24x24</title>
    <desc>Created with Sketch.</desc>
    <g id="Clik-Logo-R-24x24" stroke="none" stroke-width="1" fill="none" fill-rule="evenodd">
        <path d="M12.8372093,16.7116279 C12.8372093,16.895814 12.6865786,17.0465116 12.5024707,17.0465116 L11.4975293,17.0465116 C11.3134214,17.0465116 11.1627907,16.895814 11.1627907,16.7116279 L11.1627907,10.1255814 C11.1627907,9.94139535 11.3134214,9.79069767 11.4975293,9.79069767 L12.5024707,9.79069767 C12.6865786,9.79069767 12.8372093,9.94139535 12.8372093,10.1255814 L12.8372093,16.7116279 Z M10.0465116,16.7116279 C10.0465116,16.895814 9.89581395,17.0465116 9.71162791,17.0465116 L8.70697674,17.0465116 C8.5227907,17.0465116 8.37209302,16.895814 8.37209302,16.7116279 L8.37209302,7.33488372 C8.37209302,7.15069767 8.5227907,7 8.70697674,7 L9.71162791,7 C9.89581395,7 10.0465116,7.15069767 10.0465116,7.33488372 L10.0465116,16.7116279 Z M15.627907,16.7116279 C15.627907,16.895814 15.4772093,17.0465116 15.2930233,17.0465116 L14.2883721,17.0465116 C14.104186,17.0465116 13.9534884,16.895814 13.9534884,16.7116279 L13.9534884,7.33488372 C13.9534884,7.15069767 14.104186,7 14.2883721,7 L15.2930233,7 C15.4772093,7 15.627907,7.15069767 15.627907,7.33488372 L15.627907,16.7116279 Z M12.8372093,7.8372093 C12.8372093,8.29767442 12.4604651,8.6744186 12,8.6744186 C11.5395349,8.6744186 11.1627907,8.29767442 11.1627907,7.8372093 C11.1627907,7.37674419 11.5395349,7 12,7 C12.4604651,7 12.8372093,7.37674419 12.8372093,7.8372093 Z M7.09249786,13.6976744 C7.25220391,13.6976744 7.25580951,13.8498121 7.25580951,13.8639553 C7.16836019,15.6293619 5.69681414,17.0465116 3.91018716,17.0465116 L3.34980391,17.0465116 C1.50740763,17.0465116 -4.46511627e-06,15.5395349 -4.46511627e-06,13.6976744 L-4.46511627e-06,10.3488372 C-4.46511627e-06,8.50697674 1.50740763,7 3.34980391,7 L3.91018716,7 C5.69681414,7 7.16836019,8.41714977 7.25580951,10.1825563 C7.25580951,10.1966995 7.25220391,10.3488372 7.09249786,10.3488372 L5.75257228,10.3488372 C5.60425228,10.3488372 5.58070995,10.2175963 5.57726065,10.1875572 C5.57708205,10.1856484 5.5769146,10.1837395 5.57671367,10.1818419 L5.57669135,10.1813953 L5.57666902,10.1813953 C5.53831367,9.80052093 5.36948763,9.44547721 5.09164577,9.16771349 C4.77345042,8.84960744 4.3538746,8.6744186 3.91018716,8.6744186 L3.34980391,8.6744186 C2.90611647,8.6744186 2.48652949,8.84960744 2.16833414,9.16771349 C1.85013879,9.48581953 1.67489414,9.90528372 1.67489414,10.3488372 L1.67489414,13.6976744 C1.67489414,14.1412279 1.85013879,14.5606921 2.16833414,14.8787981 C2.48652949,15.1969042 2.90611647,15.372093 3.34980391,15.372093 L3.91018716,15.372093 C4.3538746,15.372093 4.77345042,15.1969042 5.09164577,14.8787981 C5.36948763,14.6010344 5.53831367,14.2459907 5.57666902,13.8651163 L5.57669135,13.8651163 L5.57671367,13.8646698 C5.5769146,13.8627721 5.57708205,13.8608633 5.57726065,13.8589544 C5.58070995,13.8289153 5.60425228,13.6976744 5.75257228,13.6976744 L7.09249786,13.6976744 Z M22.6389957,12.4775178 L23.3448078,13.1833299 C23.4742069,13.3127289 23.4742069,13.5244759 23.3448078,13.653875 L22.6389957,14.3596871 C22.5095967,14.4890973 22.2978497,14.4890973 22.1684506,14.3596871 L21.4626273,13.653875 C21.3332283,13.5244759 21.3332283,13.3127289 21.4626273,13.1833299 L22.1684506,12.4775178 C22.2978497,12.3481075 22.5095967,12.3481075 22.6389957,12.4775178 Z M19.0110832,14.0291356 L20.7550348,15.7730873 C20.884445,15.9024863 20.884445,16.1142445 20.7550348,16.2436435 L20.0492227,16.9494556 C19.9198236,17.0788547 19.7080767,17.0788547 19.5786776,16.9494556 L17.834726,15.205504 C17.823418,15.1941961 17.8131706,15.1822407 17.8038497,15.1697942 C17.791392,15.1604621 17.7794255,15.1502147 17.7681176,15.1389068 L17.0623055,14.4330835 C17.0498255,14.4206035 17.0385846,14.4073533 17.0285157,14.3935003 C17.0146515,14.3834203 17.0013901,14.3721682 16.9889101,14.3596882 L16.283098,13.6538761 C16.153699,13.524477 16.153699,13.31273 16.283098,13.1833198 L16.9808394,12.4855896 L16.9889101,12.4775077 L17.6643594,11.8020696 L17.6643706,11.8020473 L18.3701827,11.0962352 L19.0382757,10.4281533 L19.0382869,10.428131 L19.5786776,9.88775144 C19.7080767,9.75834121 19.9198236,9.75834121 20.0492227,9.88775144 L20.7550348,10.5935524 C20.884445,10.7229626 20.884445,10.9347096 20.7550348,11.0641087 L18.8407278,12.9784156 L18.8406832,12.9784714 L18.4005455,13.4186091 L18.944486,13.9625384 C18.9557827,13.9738463 18.9660413,13.9858017 18.9753734,13.9982482 C18.9878199,14.0075803 18.9997864,14.0178277 19.0110832,14.0291356 Z" id="Shape" fill="#fff"></path>
        <path d="M23.0908979,7.96911442 L23.0908979,7.33913116 L23.405242,7.33913116 C23.5408811,7.33913116 23.6282746,7.4278307 23.6282746,7.5439014 C23.6282746,7.63781395 23.5734876,7.71085209 23.5043565,7.73042047 L23.6478318,7.96911442 L23.474362,7.96911442 L23.3504551,7.74868279 L23.2474113,7.74868279 L23.2474113,7.96911442 L23.0908979,7.96911442 Z M23.2474113,7.62998884 L23.349149,7.62998884 C23.4039248,7.62998884 23.4639248,7.61955163 23.4639248,7.5439014 C23.4639248,7.49303256 23.4261053,7.46043721 23.3595751,7.46043721 L23.2474113,7.46043721 L23.2474113,7.62998884 Z M22.6865593,7.70563907 L22.6865593,7.6130214 C22.6865593,7.27129488 22.9682969,6.99999442 23.3439248,6.99999442 C23.716963,6.99999442 23.9999955,7.27522419 23.9999955,7.6130214 L23.9999955,7.70563907 C23.9999955,8.06954605 23.7260941,8.3395293 23.3439248,8.3395293 C22.9630727,8.3395293 22.6865593,8.06954605 22.6865593,7.70563907 Z M23.8539193,7.70433302 L23.8539193,7.61564465 C23.8539193,7.35608744 23.6387118,7.14217488 23.3439248,7.14217488 C23.0491602,7.14217488 22.8352476,7.3547814 22.8352476,7.61564465 L22.8352476,7.70433302 C22.8352476,7.9834586 23.0478541,8.19606512 23.3439248,8.19606512 C23.6400067,8.19606512 23.8539193,7.9834586 23.8539193,7.70433302 Z" id="Shape" fill="#fff"></path>
    </g>
</svg>