<svg xmlns="http://www.w3.org/2000/svg" xmlns:xlink="http://www.w3.org/1999/xlink" width="20" height="20" viewBox="0 0 20 20">
  <defs>
    <path id="path-1" fill-rule="evenodd" d="M10 8.82148838l4.41074419-4.41074419c.32543755-.32543707.85307503-.32543707 1.17851257 0 .32543564.32543707.32543564.85307455 0 1.17851114L11.17851162 10l4.41074514 4.41074419c.32543564.32543755.32543564.85307503 0 1.17851257-.32543754.32543564-.85307502.32543564-1.17851257 0L10 11.17851162l-4.41074467 4.41074514c-.32543659.32543564-.85307407.32543564-1.17851114 0-.32543707-.32543754-.32543707-.85307502 0-1.17851257L8.82148838 10 4.41074419 5.58925533c-.32543707-.32543659-.32543707-.85307407 0-1.17851114.32543707-.32543707.85307455-.32543707 1.17851114 0L10 8.82148838z"/>
    <mask id="mask-2" maskContentUnits="userSpaceOnUse" maskUnits="userSpaceOnUse">
      <rect width="20" height="20" x="0" y="0" fill="black"/>
      <use fill="white" xlink:href="#path-1"/>
    </mask>
  </defs>
  <g>
    <use fill="rgb(0,0,0)" xlink:href="#path-1"/>
    <g mask="url(#mask-2)"/>
  </g>
</svg>
