<?xml version="1.0" encoding="UTF-8"?>
<svg width="24px" height="24px" viewBox="0 0 24 24" version="1.1" xmlns="http://www.w3.org/2000/svg" xmlns:xlink="http://www.w3.org/1999/xlink">
    <!-- Generator: Sketch 55.2 (78181) - https://sketchapp.com -->
    <title>Fitness</title>
    <desc>Created with Sketch.</desc>
    <g id="Fitness" stroke="none" stroke-width="1" fill="none" fill-rule="evenodd">
        <path d="M9,11 L15,11 C15.5522847,11 16,11.4477153 16,12 C16,12.5522847 15.5522847,13 15,13 L9,13 C8.44771525,13 8,12.5522847 8,12 C8,11.4477153 8.44771525,11 9,11 Z M3,9 C3.55228475,9 4,9.44771525 4,10 L4,14 C4,14.5522847 3.55228475,15 3,15 C2.44771525,15 2,14.5522847 2,14 L2,10 C2,9.44771525 2.44771525,9 3,9 Z M21,9 C21.5522847,9 22,9.44771525 22,10 L22,14 C22,14.5522847 21.5522847,15 21,15 C20.4477153,15 20,14.5522847 20,14 L20,10 C20,9.44771525 20.4477153,9 21,9 Z M6,7 C6.55228475,7 7,7.44771525 7,8 L7,16 C7,16.5522847 6.55228475,17 6,17 C5.44771525,17 5,16.5522847 5,16 L5,8 C5,7.44771525 5.44771525,7 6,7 Z M18,7 C18.5522847,7 19,7.44771525 19,8 L19,16 C19,16.5522847 18.5522847,17 18,17 C17.4477153,17 17,16.5522847 17,16 L17,8 C17,7.44771525 17.4477153,7 18,7 Z" id="Shape" fill="#000000"></path>
    </g>
</svg>