<?xml version="1.0" standalone="no"?><!DOCTYPE svg PUBLIC "-//W3C//DTD SVG 1.1//EN" "http://www.w3.org/Graphics/SVG/1.1/DTD/svg11.dtd"><svg t="1594020898043" class="icon" viewBox="0 0 1024 1024" version="1.1" xmlns="http://www.w3.org/2000/svg" p-id="9665" xmlns:xlink="http://www.w3.org/1999/xlink" width="200" height="200"><defs><style type="text/css"></style></defs><path d="M780.007475 414.248675c-1.222851 15.70775 0.261966 29.537733 0 41.883923 0 123.860982-268.051989 279.265378-268.051989 279.265378S243.903497 579.992557 243.903497 456.132598c-0.305969-12.345166 1.264806-26.176173 0-41.883923-5.496178-69.192895 50.739615-125.648698 134.069485-125.648698 47.600111 0 103.529935 41.054021 133.983527 89.307002 27.658943-48.25298 86.383416-89.307002 134.069485-89.307002C729.223858 288.599977 785.591657 345.05578 780.007475 414.248675zM958.70846 243.968477l0 536.060999c0 98.642624-79.971379 178.744987-178.700985 178.744987L243.903497 958.774463c-98.642624 0-178.61298-80.101339-178.61298-178.744987L65.290517 243.968477c0-98.772584 79.969333-178.744987 178.61298-178.744987l536.105001 0C878.73708 65.22349 958.70846 145.19487 958.70846 243.968477zM869.401458 288.599977c0-73.994248-60.075237-134.069485-134.069485-134.069485L288.578999 154.530492c-74.03825 0-134.027529 60.075237-134.027529 134.069485l0 446.797999c0 73.994248 59.989279 133.939525 134.027529 133.939525l446.752973 0c73.994248 0 134.069485-59.945277 134.069485-133.939525L869.401458 288.599977z" p-id="9666"></path></svg>