<svg xmlns="http://www.w3.org/2000/svg" xmlns:xlink="http://www.w3.org/1999/xlink" width="20" height="20" viewBox="0 0 20 20">
  <defs>
    <path id="path-1" fill-rule="evenodd" d="M1.98838282 6.8422063l7.5000006-5.8333332c.30092477-.23405307.72230863-.23405307 1.02323388 0l7.49999905 5.8333332c.20298958.1578803.3217163.40063476.3217163.65779352v9.1666665c0 1.38071156-1.11928844 2.50000096-2.49999904 2.50000096H4.16666663c-1.38071192 0-2.5-1.1192894-2.5-2.50000095v-9.1666665c0-.25715877.11872732-.49991322.32171619-.65779353zm6.34495031 10.65779304h3.33333254v-6.66666507H8.33333313v6.66666507zm4.99999953 0V10.0000003c0-.46023655-.37309551-.83333302-.83333302-.83333302H7.50000012c-.4602375 0-.8333335.37309647-.8333335.83333302v7.49999904h-2.5c-.4602375 0-.83333337-.37309646-.83333337-.83333301V7.9075697l6.6666664-5.18518496 6.66666602 5.18518496v8.75909662c0 .46023655-.37309456.83333301-.83333301.83333301h-2.5z"/>
    <mask id="mask-2" maskContentUnits="userSpaceOnUse" maskUnits="userSpaceOnUse">
      <rect width="20" height="20" x="0" y="0" fill="black"/>
      <use fill="white" xlink:href="#path-1"/>
    </mask>
  </defs>
  <g>
    <use fill="rgb(0,0,0)" xlink:href="#path-1"/>
    <g mask="url(#mask-2)"/>
  </g>
</svg>
