<?xml version="1.0" encoding="UTF-8"?>
<svg width="24px" height="24px" viewBox="0 0 24 24" version="1.1" xmlns="http://www.w3.org/2000/svg" xmlns:xlink="http://www.w3.org/1999/xlink">
    <!-- Generator: Sketch 55.2 (78181) - https://sketchapp.com -->
    <title>Hospital 24x24</title>
    <desc>Created with Sketch.</desc>
    <g id="Hospital-24x24" stroke="none" stroke-width="1" fill="none" fill-rule="evenodd">
        <path d="M1,23 C1,22.3333333 1.33333333,22 2,22 L3,22 L3,5 C3,3.66666667 3.66666667,3 5,3 L8,3 L8,1 C8,0.333333333 8.33333333,0 9,0 L15,0 C15.6666667,0 16,0.333333333 16,1 L16,3 L19,3 C20.3333333,3 21,3.66666667 21,5 L21,22 L22,22 C22.6666667,22 23,22.3333333 23,23 L23,24 L1,24 L1,23 Z M14,22 L19,22 L19,5 L16,5 L16,7 C16,7.66666667 15.6666667,8 15,8 L9,8 C8.33333333,8 8,7.66666667 8,7 L8,5 L5,5 L5,22 L10,22 L10,19 C10,18.4477153 10.4477153,18 11,18 L13,18 C13.5522847,18 14,18.4477153 14,19 L14,22 Z M9,9 L10,9 C10.5522847,9 11,9.44771525 11,10 L11,11 C11,11.5522847 10.5522847,12 10,12 L9,12 C8.44771525,12 8,11.5522847 8,11 L8,10 C8,9.44771525 8.44771525,9 9,9 Z M14,9 L15,9 C15.5522847,9 16,9.44771525 16,10 L16,11 C16,11.5522847 15.5522847,12 15,12 L14,12 C13.4477153,12 13,11.5522847 13,11 L13,10 C13,9.44771525 13.4477153,9 14,9 Z M9,13 L10,13 C10.5522847,13 11,13.4477153 11,14 L11,15 C11,15.5522847 10.5522847,16 10,16 L9,16 C8.44771525,16 8,15.5522847 8,15 L8,14 C8,13.4477153 8.44771525,13 9,13 Z M14,13 L15,13 C15.5522847,13 16,13.4477153 16,14 L16,15 C16,15.5522847 15.5522847,16 15,16 L14,16 C13.4477153,16 13,15.5522847 13,15 L13,14 C13,13.4477153 13.4477153,13 14,13 Z M11.5,2 L11.5,6 L12.5,6 L12.5,2 L11.5,2 Z M10,3.5 L10,4.5 L11.5,4.5 L11.5,3.5 L10,3.5 Z M12.5,3.5 L12.5,4.5 L14,4.5 L14,3.5 L12.5,3.5 Z" id="Shape" fill="#000000"></path>
    </g>
</svg>