<svg xmlns="http://www.w3.org/2000/svg" xmlns:xlink="http://www.w3.org/1999/xlink" width="20" height="20" viewBox="0 0 20 20">
  <defs>
    <path id="path-1" fill-rule="evenodd" d="M4.16666663 1.66666663H15.8333336c1.3807106 0 2.49999905 1.11928808 2.49999905 2.5V15.8333336c0 1.3807106-1.11928845 2.49999905-2.49999905 2.49999905H4.16666663l-.0024991-.00000191c-1.37956322-.0013504-2.4975009-1.12012005-2.4975009-2.49999714V4.16666663c0-1.38071192 1.11928808-2.5 2.5-2.5zm2.01184606 14.99999904h9.65481997c.46023845 0 .83333301-.37309456.83333301-.83333301v-2.98815441l-3.33333301-3.3333335-7.15481997 7.15482092zm10.48815298-6.17851162L13.922588 7.7440778c-.3254366-.32543707-.85307407-.32543707-1.17851067 0l-8.86983728 8.86983633c-.31598961-.11843109-.54090679-.42323875-.54090679-.78058147V4.16666663c0-.4602375.37309587-.83333338.83333338-.83333338h11.66666603c.46023845 0 .83333301.37309587.83333301.83333338v6.32148742zM5.00000012 7.08333313c0 1.15059376.93274021 2.08333302 2.08333301 2.08333302 1.15059376 0 2.08333302-.93273926 2.08333302-2.08333302 0-1.1505928-.93273926-2.08333301-2.08333302-2.08333301-1.1505928 0-2.08333301.93274021-2.08333301 2.08333301zm2.08333301.41666699c.23011876 0 .41666699-.18654823.41666699-.41666699 0-.23011827-.18654823-.4166665-.41666699-.4166665-.23011827 0-.4166665.18654823-.4166665.4166665 0 .23011876.18654823.41666699.4166665.41666699z"/>
    <mask id="mask-2" maskContentUnits="userSpaceOnUse" maskUnits="userSpaceOnUse">
      <rect width="20" height="20" x="0" y="0" fill="black"/>
      <use fill="white" xlink:href="#path-1"/>
    </mask>
  </defs>
  <g>
    <use fill="rgb(0,0,0)" xlink:href="#path-1"/>
    <g mask="url(#mask-2)"/>
  </g>
</svg>
