<svg xmlns="http://www.w3.org/2000/svg" xmlns:xlink="http://www.w3.org/1999/xlink" width="20" height="20" viewBox="0 0 20 20">
  <defs>
    <path id="path-1" fill-rule="evenodd" d="M.83333331 10.0000003c0 5.06260967 4.10405636 9.16666698 9.16666699 9.16666698 5.06260967 0 9.16666698-4.1040573 9.16666698-9.16666698 0-5.06261063-4.1040573-9.16666699-9.16666698-9.16666699-5.06261063 0-9.16666699 4.10405636-9.16666699 9.16666699zm16.66666603 0c0 4.14213562-3.35786342 7.49999904-7.49999904 7.49999904-4.1421361 0-7.50000024-3.35786342-7.50000024-7.49999904 0-4.1421361 3.35786414-7.50000024 7.50000024-7.50000024 4.14213562 0 7.49999904 3.35786414 7.49999904 7.50000024zM10.58925658 6.910744c.3254366.32543707.3254366.85307455 0 1.17851114-.32543754.3254366-.85307502.3254366-1.17851161 0-.3254366-.32543659-.3254366-.85307407 0-1.17851114.32543659-.32543707.85307407-.32543707 1.17851161 0zm.24407769 6.42259026V10.0000003c0-.46023655-.37309647-.83333302-.83333397-.83333302-.46023655 0-.83333302.37309647-.83333302.83333302v3.33333397c0 .4602375.37309647.83333301.83333302.83333301.4602375 0 .83333397-.37309551.83333397-.83333301z"/>
    <mask id="mask-2" maskContentUnits="userSpaceOnUse" maskUnits="userSpaceOnUse">
      <rect width="20" height="20" x="0" y="0" fill="black"/>
      <use fill="white" xlink:href="#path-1"/>
    </mask>
  </defs>
  <g>
    <use fill="rgb(0,0,0)" xlink:href="#path-1"/>
    <g mask="url(#mask-2)"/>
  </g>
</svg>
