<svg xmlns="http://www.w3.org/2000/svg" xmlns:xlink="http://www.w3.org/1999/xlink" width="20" height="20" viewBox="0 0 20 20">
  <defs>
    <path id="path-1" fill-rule="evenodd" d="M10.37286115.92131066c-.23460675-.11730313-.51074982-.11730313-.74535656 0L1.2941712 5.08797723c-.61420708.30710363-.61420708 1.18360853 0 1.49071217l8.33333338 4.1666665c.23460674.1173029.51074981.1173029.74535656 0l8.33333206-4.1666665c.61420631-.30710364.61420631-1.18360854 0-1.49071217L10.37286115.92131066zM3.5302391 5.83333331l6.46994423-3.23497152 6.469944 3.23497152-6.469944 3.234972-6.46994423-3.234972zM.92149317 9.6273225c.20582438-.41164875.70638526-.57850265 1.118034-.37267875l7.96065522 3.98032856 7.96065521-3.98032856c.4116497-.2058239.91221047-.03897 1.11803437.37267875.2058239.41164876.03897094.91220952-.37267876 1.11803341l-8.33333302 4.16666699c-.23460579.1173029-.51074981.1173029-.7453556 0L1.2941712 10.7453559C.88252246 10.539532.7156688 10.03897125.92149317 9.6273225zm1.118034 3.79398823c-.41164874-.2058239-.91220962-.03897-1.118034.37267876-.20582437.41164875-.0389707.91220951.37267804 1.1180334l8.33333338 4.16666604c.23460579.11730194.51074981.11730194.7453556 0l8.33333302-4.16666603c.4116497-.2058239.57850265-.70638466.37267876-1.11803341-.2058239-.41164875-.70638466-.57850266-1.11803437-.37267876l-7.96065521 3.98032666-7.96065521-3.98032666z"/>
    <mask id="mask-2" maskContentUnits="userSpaceOnUse" maskUnits="userSpaceOnUse">
      <rect width="20" height="20" x="0" y="0" fill="black"/>
      <use fill="white" xlink:href="#path-1"/>
    </mask>
  </defs>
  <g>
    <use fill="rgb(0,0,0)" xlink:href="#path-1"/>
    <g mask="url(#mask-2)"/>
  </g>
</svg>
