<?xml version="1.0" standalone="no"?><!DOCTYPE svg PUBLIC "-//W3C//DTD SVG 1.1//EN" "http://www.w3.org/Graphics/SVG/1.1/DTD/svg11.dtd"><svg t="1595932542275" class="icon" viewBox="0 0 1024 1024" version="1.1" xmlns="http://www.w3.org/2000/svg" p-id="2780" xmlns:xlink="http://www.w3.org/1999/xlink" width="200" height="200"><defs><style type="text/css"></style></defs><path d="M130.346667 554.666667H42.666667v-85.333334h87.68A384.170667 384.170667 0 0 1 469.333333 130.346667V42.666667h85.333334v87.68A384.170667 384.170667 0 0 1 893.653333 469.333333H981.333333v85.333334h-87.68A384.170667 384.170667 0 0 1 554.666667 893.653333V981.333333h-85.333334v-87.68A384.170667 384.170667 0 0 1 130.346667 554.666667zM512 213.333333a298.666667 298.666667 0 1 0 0 597.333334 298.666667 298.666667 0 0 0 0-597.333334z m0 128a170.666667 170.666667 0 1 1 0 341.333334 170.666667 170.666667 0 0 1 0-341.333334z m0 85.333334a85.333333 85.333333 0 1 0 0 170.666666 85.333333 85.333333 0 0 0 0-170.666666z" p-id="2781"></path></svg>