<svg xmlns="http://www.w3.org/2000/svg" xmlns:xlink="http://www.w3.org/1999/xlink" width="20" height="20" viewBox="0 0 20 20">
  <defs>
    <path id="path-1" fill-rule="evenodd" d="M1.24678242 19.05686963l5.4461087-3.11206246 6.25280857 3.12640572c.10815907.05693626.2303629.09078789.36005879.09500503.00915527.00029755.01834678.00044823.02757454.00044823.15570545 0 .30143737-.04270363.4261217-.11703873l5.82066155-3.32609176C19.83976173 15.57516682 20 15.29904759 20 15.00000012V1.66666662c0-.63985216-.69123459-1.04099154-1.2467823-.72353595l-5.44610882 3.1120624L7.05433988.9288082c-.1138773-.05995506-.24332523-.09431988-.3806963-.09544629l-.0069766-.0000286c-.1557188 0-.30146217.04271101-.42615413.11705726L.4198842 4.2764641C.1602384 4.42483342 0 4.70095265 0 5.00000012v13.33333397c0 .63985061.69123513 1.04099083 1.24678242.72353554zm12.91988456-2.1595211l4.16666508-2.38094998V3.1026498l-4.16666508 2.38095188v11.41374683zM12.5 5.51502811l-5-2.5v11.469944l5 2.4999981V5.51502811zM1.66666663 5.48360217L5.83333349 3.1026498v11.41374874l-4.16666686 2.38095188V5.48360217z"/>
    <mask id="mask-2" maskContentUnits="userSpaceOnUse" maskUnits="userSpaceOnUse">
      <rect width="20" height="20" x="0" y="0" fill="black"/>
      <use fill="white" xlink:href="#path-1"/>
    </mask>
  </defs>
  <g>
    <use fill="rgb(0,0,0)" xlink:href="#path-1"/>
    <g mask="url(#mask-2)"/>
  </g>
</svg>
