<svg xmlns="http://www.w3.org/2000/svg" xmlns:xlink="http://www.w3.org/1999/xlink" width="20" height="20" viewBox="0 0 20 20">
  <defs>
    <path id="path-1" fill-rule="evenodd" d="M17.49999964 5.83333302H2.5c-.46023726 0-.83333337-.373096-.83333337-.83333302 0-.4602375.3730961-.8333335.83333337-.8333335h14.99999964c.46023846 0 .83333302.373096.83333302.8333335 0 .46023703-.37309456.83333302-.83333302.83333302zm0 5.00000095H2.5c-.46023726 0-.83333337-.37309647-.83333337-.83333397 0-.46023655.3730961-.83333302.83333337-.83333302h14.99999964c.46023846 0 .83333302.37309647.83333302.83333302 0 .4602375-.37309456.83333397-.83333302.83333397zm0 5.00000048H2.5c-.46023726 0-.83333337-.37309647-.83333337-.83333397 0-.4602375.3730961-.83333397.83333337-.83333397h14.99999964c.46023846 0 .83333302.37309646.83333302.83333397 0 .4602375-.37309456.83333397-.83333302.83333397z"/>
    <mask id="mask-2" maskContentUnits="userSpaceOnUse" maskUnits="userSpaceOnUse">
      <rect width="20" height="20" x="0" y="0" fill="black"/>
      <use fill="white" xlink:href="#path-1"/>
    </mask>
  </defs>
  <g>
    <use fill="rgb(0,0,0)" xlink:href="#path-1"/>
    <g mask="url(#mask-2)"/>
  </g>
</svg>
