<?xml version="1.0" standalone="no"?><!DOCTYPE svg PUBLIC "-//W3C//DTD SVG 1.1//EN" "http://www.w3.org/Graphics/SVG/1.1/DTD/svg11.dtd"><svg t="1594020049395" class="icon" viewBox="0 0 1024 1024" version="1.1" xmlns="http://www.w3.org/2000/svg" p-id="1455" xmlns:xlink="http://www.w3.org/1999/xlink" width="200" height="200"><defs><style type="text/css"></style></defs><path d="M938.666667 896c-47.36 0-73.813333-15.786667-93.013334-27.52-15.786667-9.386667-25.386667-15.146667-49.066666-15.146667-23.68 0-33.28 5.76-49.066667 15.146667-19.2 11.52-45.653333 27.52-93.013333 27.52s-73.813333-15.786667-93.013334-27.52c-15.786667-9.6-25.386667-15.146667-49.066666-15.146667-23.68 0-33.28 5.76-49.066667 15.146667-19.626667 11.733333-46.08 27.52-93.44 27.52-47.36 0-73.813333-15.786667-93.013333-27.306667-15.786667-9.6-25.386667-15.36-49.28-15.36s-33.28 5.76-49.28 15.36C159.146667 880.213333 132.693333 896 85.333333 896v-85.333333c23.68 0 33.28-5.76 49.28-15.36 19.2-11.52 45.653333-27.306667 93.013334-27.306667s73.813333 15.786667 93.013333 27.306667c15.786667 9.6 25.386667 15.36 49.28 15.36 23.68 0 33.28-5.76 49.066667-15.146667 19.2-11.52 45.653333-27.52 93.013333-27.52s73.813333 15.786667 93.013333 27.52c15.786667 9.6 25.386667 15.146667 49.066667 15.146667s33.28-5.76 49.066667-15.146667c19.2-11.52 45.653333-27.52 93.013333-27.52s73.813333 15.786667 93.013333 27.52c16.213333 9.386667 25.813333 15.146667 49.493334 15.146667v85.333333z m0-192c-47.36 0-73.813333-15.786667-93.013334-27.52-15.786667-9.386667-25.386667-15.146667-49.066666-15.146667-23.68 0-33.28 5.76-49.066667 15.146667-19.2 11.52-45.653333 27.52-93.013333 27.52s-73.813333-15.786667-93.013334-27.52c-15.786667-9.6-25.386667-15.146667-49.066666-15.146667-23.68 0-33.28 5.76-49.066667 15.146667-19.626667 11.733333-46.08 27.52-93.44 27.52-47.36 0-73.813333-15.786667-93.013333-27.306667-15.786667-9.6-25.386667-15.36-49.28-15.36s-33.28 5.76-49.28 15.36C159.146667 688.213333 132.693333 704 85.333333 704v-85.333333c23.68 0 33.28-5.76 49.28-15.36 19.2-11.52 45.653333-27.306667 93.013334-27.306667s73.813333 15.786667 93.013333 27.306667c15.786667 9.6 25.386667 15.36 49.28 15.36 23.68 0 33.28-5.76 49.066667-15.146667 19.2-11.52 45.653333-27.52 93.013333-27.52s73.813333 15.786667 93.013333 27.52c15.786667 9.6 25.386667 15.146667 49.066667 15.146667s33.28-5.76 49.066667-15.146667c19.2-11.52 45.653333-27.52 93.013333-27.52s73.813333 15.786667 93.013333 27.52c16.213333 9.386667 25.813333 15.146667 49.493334 15.146667v85.333333z m-568.746667-192c23.68 0 33.28-5.76 49.066667-15.146667 19.2-11.52 45.653333-27.52 93.013333-27.52s73.813333 15.786667 93.013333 27.52c15.786667 9.6 25.386667 15.146667 49.066667 15.146667s33.28-5.76 49.066667-15.146667c5.12-3.2 10.88-6.4 17.28-9.813333L447.146667 213.333333C380.8 146.986667 320 127.573333 213.333333 128v106.666667c77.653333-0.426667 123.093333 16.64 170.666667 64l42.666667 42.666666-138.666667 138.666667c13.226667 5.12 23.893333 11.306667 32.853333 16.64 15.786667 9.6 25.386667 15.36 49.066667 15.36z" p-id="1456"></path><path d="M704 234.666667m-106.666667 0a106.666667 106.666667 0 1 0 213.333334 0 106.666667 106.666667 0 1 0-213.333334 0Z" p-id="1457"></path></svg>