<?xml version="1.0" encoding="UTF-8"?>
<svg width="24px" height="24px" viewBox="0 0 24 24" version="1.1" xmlns="http://www.w3.org/2000/svg" xmlns:xlink="http://www.w3.org/1999/xlink">
    <!-- Generator: Sketch 55.2 (78181) - https://sketchapp.com -->
    <title>Restaurant 24x24</title>
    <desc>Created with Sketch.</desc>
    <g id="Restaurant-24x24" stroke="none" stroke-width="1" fill="none" fill-rule="evenodd">
        <path d="M16.0000658,10.9884127 C14.4675698,10.8540284 13.2655644,9.56738592 13.2655644,8 C13.2655644,7.87560493 13.2733015,7.75133028 13.2887308,7.6278958 L13.5387308,5.6278958 C13.7263916,4.12660933 15.0025946,3 16.5155644,3 L17.4844356,3 C18.9974054,3 20.2736084,4.12660933 20.4612692,5.6278958 L20.7112692,7.6278958 C20.9167767,9.27195561 19.7505996,10.7713262 18.1065398,10.9768336 C18.0710676,10.9812677 18.035526,10.9850664 17.9999321,10.9882288 C17.9999773,10.9921472 18,10.9960709 18,11 L18,21 C18,21.5522847 17.5522847,22 17,22 C16.4477153,22 16,21.5522847 16,21 L16,11 C16,10.9961324 16.000022,10.9922699 16.0000658,10.9884127 L16.0000658,10.9884127 Z M6,9 L6,4 C6,3.44771525 6.44771525,3 7,3 C7.55228475,3 8,3.44771525 8,4 L8,9 C8.73661118,9 9,8.68393342 9,7.6 L9,4 C9,3.44771525 9.44771525,3 10,3 C10.5522847,3 11,3.44771525 11,4 L11,7.6 C11,9.71606658 9.93005548,11 8,11 L8,21 C8,21.5522847 7.55228475,22 7,22 C6.44771525,22 6,21.5522847 6,21 L6,11 C4.06994452,11 3,9.71606658 3,7.6 L3,4 C3,3.44771525 3.44771525,3 4,3 C4.55228475,3 5,3.44771525 5,4 L5,7.6 C5,8.68393342 5.26338882,9 6,9 Z M16.5155644,5 C16.0112412,5 15.5858402,5.37553644 15.5232866,5.87596527 L15.2732866,7.87596527 C15.2681435,7.91711009 15.2655644,7.95853498 15.2655644,8 C15.2655644,8.55228475 15.7132797,9 16.2655644,9 L17.7344356,9 C17.7759006,9 17.8173255,8.99742098 17.8584703,8.99227788 C18.4064902,8.92377538 18.7952159,8.4239852 18.7267134,7.87596527 L18.4767134,5.87596527 C18.4141598,5.37553644 17.9887588,5 17.4844356,5 L16.5155644,5 Z" id="Shape" fill="#000000" fill-rule="nonzero"></path>
    </g>
</svg>