<?xml version="1.0" encoding="UTF-8"?>
<svg width="24px" height="24px" viewBox="0 0 24 24" version="1.1" xmlns="http://www.w3.org/2000/svg" xmlns:xlink="http://www.w3.org/1999/xlink">
    <!-- Generator: Sketch 55.2 (78181) - https://sketchapp.com -->
    <title>School 24x24</title>
    <desc>Created with Sketch.</desc>
    <g id="School-24x24" stroke="none" stroke-width="1" fill="none" fill-rule="evenodd">
        <path d="M1,10 L2,10 L2,24 L1,24 C0.44771525,24 0,23.5522847 0,23 L0,11 C0,10.4477153 0.44771525,10 1,10 Z M23,10 C23.5522847,10 24,10.4477153 24,11 L24,23 C24,23.5522847 23.5522847,24 23,24 L22,24 L22,10 L23,10 Z M5,8.67593414 L5,24 L3,24 L3,8.62196211 C3,8.04916701 3.26287574,7.51075064 3.71056475,7.14667945 L10.7105648,1.45411553 C11.4551171,0.848628156 12.5448829,0.848628156 13.2894352,1.45411553 L20.2894352,7.14667945 C20.7371243,7.51075064 21,8.04916701 21,8.62196211 L21,24 L19,24 L19,8.67593414 L12.027574,3.00579401 C12.0180743,2.99806866 11.9819257,2.99806866 11.972426,3.00579401 L5,8.67593414 Z M10,17 L14,17 C14.5522847,17 15,17.4477153 15,18 L15,24 L9,24 L9,18 C9,17.4477153 9.44771525,17 10,17 Z M12.5,11 L12.5,8.5 L11.5,8.5 L11.5,11 L12.5,11 Z M12,13.4142136 C10.3431458,13.4142136 9,12.0710678 9,10.4142136 C9,8.75735931 10.3431458,7.41421356 12,7.41421356 C13.6568542,7.41421356 15,8.75735931 15,10.4142136 C15,12.0710678 13.6568542,13.4142136 12,13.4142136 Z M12.5,10 L12.5,11 L13.5,11 L13.5,10 L12.5,10 Z" id="Shape" fill="#000000"></path>
    </g>
</svg>