<?xml version="1.0" standalone="no"?><!DOCTYPE svg PUBLIC "-//W3C//DTD SVG 1.1//EN" "http://www.w3.org/Graphics/SVG/1.1/DTD/svg11.dtd"><svg t="1594020976599" class="icon" viewBox="0 0 1024 1024" version="1.1" xmlns="http://www.w3.org/2000/svg" p-id="11583" xmlns:xlink="http://www.w3.org/1999/xlink" width="200" height="200"><defs><style type="text/css"></style></defs><path d="M514.909091 610.909091a174.545455 174.545455 0 0 1-174.545455-174.545455 29.090909 29.090909 0 0 1 58.181819 0 116.363636 116.363636 0 0 0 232.727272 0 29.090909 29.090909 0 0 1 58.181818 0 174.545455 174.545455 0 0 1-174.545454 174.545455z" p-id="11584"></path><path d="M195.374545 960a29.090909 29.090909 0 0 1-28.974545-31.418182l11.636364-139.636363H113.221818a87.156364 87.156364 0 0 1-87.04-87.272728V151.272727a87.156364 87.156364 0 0 1 87.04-87.272727h802.909091a87.156364 87.156364 0 0 1 87.505455 87.272727v550.167273a87.156364 87.156364 0 0 1-87.04 87.272727H444.043636L212.247273 954.181818a29.090909 29.090909 0 0 1-16.872728 5.818182z m-82.152727-837.818182A28.974545 28.974545 0 0 0 84.363636 151.272727v550.167273a28.974545 28.974545 0 0 0 28.858182 29.090909H209.454545a29.090909 29.090909 0 0 1 28.974546 31.418182l-8.610909 108.916364 187.927273-134.981819a29.090909 29.090909 0 0 1 16.98909-5.469091h481.861819a28.974545 28.974545 0 0 0 28.858181-29.090909V151.272727a28.974545 28.974545 0 0 0-28.858181-29.090909z" p-id="11585"></path></svg>