<?xml version="1.0" encoding="UTF-8"?>
<svg width="24px" height="24px" viewBox="0 0 24 24" version="1.1" xmlns="http://www.w3.org/2000/svg" xmlns:xlink="http://www.w3.org/1999/xlink">
    <!-- Generator: Sketch 55.2 (78181) - https://sketchapp.com -->
    <title>Shopping Center 24x24</title>
    <desc>Created with Sketch.</desc>
    <g id="Shopping-Center-24x24" stroke="none" stroke-width="1" fill="none" fill-rule="evenodd">
        <path d="M6.08295844,5 C6.55903653,2.16228666 9.02700371,0 12,0 C14.9729963,0 17.4409635,2.16228666 17.9170416,5 L19,5 C20.6568542,5 22,6.41776496 22,8.16666667 L22,20.8333333 C22,22.582235 20.6568542,24 19,24 L5,24 C3.34314575,24 2,22.582235 2,20.8333333 L2,8.16666667 C2,6.41776496 3.34314575,5 5,5 L6.08295844,5 Z M8.12601749,5 L15.8739825,5 C15.4299397,3.27477279 13.8638394,2 12,2 C10.1361606,2 8.57006028,3.27477279 8.12601749,5 L8.12601749,5 Z M6,7 L5,7 C4.44771525,7 4,7.47969491 4,8.07142857 L4,20.9285714 C4,21.5203051 4.44771525,22 5,22 L19,22 C19.5522847,22 20,21.5203051 20,20.9285714 L20,8.07142857 C20,7.47969491 19.5522847,7 19,7 L18,7 L18,9 C18,9.55228475 17.5522847,10 17,10 C16.4477153,10 16,9.55228475 16,9 L16,7 L8,7 L8,9 C8,9.55228475 7.55228475,10 7,10 C6.44771525,10 6,9.55228475 6,9 L6,7 Z" id="Shape" fill="#000000"></path>
    </g>
</svg>