<?xml version="1.0" encoding="UTF-8"?>
<svg width="24px" height="24px" viewBox="0 0 24 24" version="1.1" xmlns="http://www.w3.org/2000/svg" xmlns:xlink="http://www.w3.org/1999/xlink">
    <!-- Generator: Sketch 55.2 (78181) - https://sketchapp.com -->
    <title>Traffic 24x24</title>
    <desc>Created with Sketch.</desc>
    <g id="Traffic-24x24" stroke="none" stroke-width="1" fill="none" fill-rule="evenodd">
        <path d="M18.5686481,4.92939023e-14 C19.7427532,-0.00309402664 20.8699198,0.42723804 21.7013244,1.19601661 C22.532729,1.96479519 23,3.00880318 23,4.09757454 L23,22.2439019 C23,23.2137671 22.1521437,24 21.1062599,24 L17.3187796,24 C16.5029592,24.0011047 15.778069,23.5175906 15.5197265,22.799999 L14.6864808,20.4878057 L9.3135192,20.4878057 L8.48027354,22.799999 C8.22193101,23.5175906 7.49704081,24.0011047 6.68122041,24 L2.89374014,24 C1.84785634,24 1,23.2137671 1,22.2439019 L1,4.09757454 C1,1.83455586 2.97833146,4.92939023e-14 5.41872699,4.92939023e-14 L18.5686481,4.92939023e-14 Z M5.5,2 C4.11928813,2 3,3.10206831 3,4.46153846 L3,7 L21,7 L21,4.46153846 C21,3.10206831 19.8807119,2 18.5,2 L5.5,2 Z M17.25,22 L21,22 L21,9 L3,9 L3,22 L6.75,22 L8,18.5263158 L16,18.5263158 L17.25,22 Z M15.5,15 C14.6715729,15 14,14.3284271 14,13.5 C14,12.6715729 14.6715729,12 15.5,12 C16.3284271,12 17,12.6715729 17,13.5 C17,14.3284271 16.3284271,15 15.5,15 Z M8.5,15 C7.67157288,15 7,14.3284271 7,13.5 C7,12.6715729 7.67157288,12 8.5,12 C9.32842712,12 10,12.6715729 10,13.5 C10,14.3284271 9.32842712,15 8.5,15 Z" id="Shape" fill="#000000"></path>
    </g>
</svg>