<?xml version="1.0" standalone="no"?><!DOCTYPE svg PUBLIC "-//W3C//DTD SVG 1.1//EN" "http://www.w3.org/Graphics/SVG/1.1/DTD/svg11.dtd"><svg t="1594020286723" class="icon" viewBox="0 0 1280 1024" version="1.1" xmlns="http://www.w3.org/2000/svg" p-id="3720" xmlns:xlink="http://www.w3.org/1999/xlink" width="250" height="200"><defs><style type="text/css"></style></defs><path d="M230.757436 273.808337l204.21773 74.359174c70.379218-163.078188 172.418084-288.576793 277.996911-347.39614-191.757869-9.779891-377.555804 73.919179-497.054477 223.597516-13.379851 16.799813-5.319941 42.099532 14.839836 49.43945z m264.49706 96.31893l476.9547 173.65807c71.519205-242.757302 37.399584-463.314851-85.259053-507.954355-14.799836-5.39994-30.259664-7.999911-46.179487-7.999911-116.03871 0.02-256.537149 138.338463-345.51616 342.296196zM1042.948409 121.010035c12.439862 32.599638 21.659759 69.199231 26.399707 110.378774 11.479872 99.778891-2.839968 216.457594-37.899579 333.956288l205.237719 74.71917c20.179776 7.339918 42.619526-6.859924 43.139521-28.339685 4.639948-191.377873-83.819068-374.875834-236.877368-490.714547zM1119.987553 895.961423H642.112864L771.991421 539.00539l-120.278664-43.799513-145.798379 400.735546H31.999644c-17.679804 0-31.999644 14.319841-31.999644 32.019644v64.019289C0 1009.660159 14.319841 1024 31.999644 1024h1087.987909c17.679804 0 31.999644-14.339841 31.999645-32.019644v-64.019289c0-17.679804-14.319841-31.999644-31.999645-31.999644z" fill="" p-id="3721"></path></svg>