<?xml version="1.0" standalone="no"?><!DOCTYPE svg PUBLIC "-//W3C//DTD SVG 1.1//EN" "http://www.w3.org/Graphics/SVG/1.1/DTD/svg11.dtd"><svg t="1594021111856" class="icon" viewBox="0 0 1024 1024" version="1.1" xmlns="http://www.w3.org/2000/svg" p-id="13899" xmlns:xlink="http://www.w3.org/1999/xlink" width="200" height="200"><defs><style type="text/css"></style></defs><path d="M853.333333 256l-170.666667 0 0-85.333333c0-47.146667-38.186667-85.333333-85.333333-85.333333l-170.666667 0c-47.146667 0-85.333333 38.186667-85.333333 85.333333l0 85.333333-170.666667 0c-47.146667 0-84.906667 38.186667-84.906667 85.333333l-0.426667 469.333333c0 47.146667 38.186667 85.333333 85.333333 85.333333l682.666667 0c47.146667 0 85.333333-38.186667 85.333333-85.333333l0-469.333333c0-47.146667-38.186667-85.333333-85.333333-85.333333zM597.333333 256l-170.666667 0 0-85.333333 170.666667 0 0 85.333333z" p-id="13900"></path></svg>